<svg viewBox="0 0 16 16" fill="none" xmlns="http://www.w3.org/2000/svg">
  <path opacity="0.1" d="M14.5 1.5V5.5H1.5V1.5H14.5Z" fill="#1F1F1F" />
  <path d="M14.5 1H1.5L1 1.5V5.5L1.5 6H14.5L15 5.5V1.5L14.5 1ZM2 2H10V5H2V2ZM14 5H11V2H14V5Z" fill="#1F1F1F" />
  <path d="M12.5 4.125L11.75 3H13.25L12.5 4.125Z" fill="#1F1F1F" />
  <path d="M15 8H7V7H15V8ZM7 9V10H15V9H7ZM7 12H15V11H7V12Z" fill="#1F1F1F" />
  <path d="M5.32 12.873L6.027 13.58L3.854 15.749H3.148L0.969 13.581L1.674 12.872L3 14.192V8.816L1.679 10.143L0.97 9.443L3.149 7.25H3.858L6.031 9.438L5.322 10.143L4 8.812V14.191L5.32 12.873Z" fill="#006CBE" />
</svg>