<svg viewBox="0 0 16 16" fill="none" xmlns="http://www.w3.org/2000/svg">
  <path opacity="0.1" d="M14.5 9V7L12 6.5L11.889 6.232L13.3 4.111L11.889 2.7L9.768 4.111L9.5 4L9 1.5H7L6.5 4L6.232 4.111L4.111 2.7L2.7 4.111L4.111 6.232L4 6.5L1.5 7V9L4 9.5L4.111 9.768L2.7 11.889L4.111 13.3L6.232 11.886L6.5 12L7 14.5H9L9.5 12L9.768 11.889L11.889 13.3L13.3 11.889L11.889 9.768L12 9.5L14.5 9ZM8 11C7.40666 11 6.82664 10.8241 6.33329 10.4944C5.83994 10.1648 5.45542 9.69623 5.22836 9.14805C5.0013 8.59987 4.94189 7.99667 5.05764 7.41473C5.1734 6.83279 5.45912 6.29824 5.87868 5.87868C6.29824 5.45912 6.83279 5.1734 7.41473 5.05764C7.99667 4.94189 8.59987 5.0013 9.14805 5.22836C9.69623 5.45542 10.1648 5.83994 10.4944 6.33329C10.8241 6.82664 11 7.40666 11 8C11 8.79565 10.6839 9.55871 10.1213 10.1213C9.55871 10.6839 8.79565 11 8 11Z" fill="#1F1F1F" />
  <path d="M8 11C7.40666 11 6.82664 10.8241 6.33329 10.4944C5.83994 10.1648 5.45543 9.69623 5.22836 9.14805C5.0013 8.59987 4.94189 7.99667 5.05765 7.41473C5.1734 6.83279 5.45912 6.29824 5.87868 5.87868C6.29824 5.45912 6.83279 5.1734 7.41473 5.05765C7.99667 4.94189 8.59987 5.0013 9.14805 5.22836C9.69623 5.45543 10.1648 5.83994 10.4944 6.33329C10.8241 6.82664 11 7.40666 11 8C11 8.79565 10.6839 9.55871 10.1213 10.1213C9.55871 10.6839 8.79565 11 8 11ZM8 6C7.60444 6 7.21776 6.1173 6.88886 6.33706C6.55996 6.55682 6.30362 6.86918 6.15224 7.23463C6.00087 7.60009 5.96126 8.00222 6.03843 8.39018C6.1156 8.77814 6.30608 9.13451 6.58579 9.41421C6.86549 9.69392 7.22186 9.8844 7.60982 9.96157C7.99778 10.0387 8.39992 9.99914 8.76537 9.84776C9.13082 9.69638 9.44318 9.44004 9.66294 9.11114C9.8827 8.78224 10 8.39556 10 8C10 7.46957 9.78929 6.96086 9.41421 6.58579C9.03914 6.21071 8.53043 6 8 6V6Z" fill="#1F1F1F" />
  <path d="M15 6.59L12.574 6.105L13.947 4.048L11.952 2.053L9.9 3.426L9.41 1H6.59L6.105 3.426L4.048 2.053L2.053 4.053L3.426 6.105L1 6.59V9.41L3.426 9.9L2.053 11.952L4.053 13.947L6.11 12.574L6.59 15H9.41L9.9 12.574L11.957 13.947L13.952 11.952L12.574 9.9L15 9.41V6.59ZM14 8.59L11.641 9.062L11.324 9.822L12.66 11.822L11.825 12.657L9.825 11.321L9.065 11.638L8.59 14H7.41L6.938 11.641L6.178 11.324L4.178 12.66L3.343 11.825L4.679 9.825L4.362 9.065L2 8.59V7.41L4.359 6.938L4.676 6.178L3.34 4.178L4.175 3.343L6.175 4.679L6.935 4.362L7.41 2H8.59L9.062 4.359L9.822 4.676L11.822 3.34L12.657 4.175L11.321 6.175L11.638 6.935L14 7.41V8.59Z" fill="#1F1F1F" />
</svg>