<svg viewBox="0 0 16 16" fill="none" xmlns="http://www.w3.org/2000/svg">
  <path opacity="0.1" d="M13.5 7.5C13.5 8.68669 13.1481 9.84673 12.4888 10.8334C11.8295 11.8201 10.8925 12.5892 9.7961 13.0433C8.69974 13.4974 7.49334 13.6162 6.32946 13.3847C5.16557 13.1532 4.09647 12.5818 3.25736 11.7426C2.41824 10.9035 1.8468 9.83443 1.61529 8.67054C1.38378 7.50666 1.5026 6.30026 1.95672 5.2039C2.41085 4.10754 3.17988 3.17047 4.16658 2.51118C5.15327 1.85189 6.31331 1.5 7.5 1.5C9.0913 1.5 10.6174 2.13214 11.7426 3.25736C12.8679 4.38258 13.5 5.9087 13.5 7.5Z" fill="#006CBE" />
  <path d="M7.5 1C6.21442 1 4.95771 1.38122 3.88879 2.09545C2.81987 2.80968 1.98675 3.82484 1.49478 5.01256C1.00281 6.20028 0.874091 7.50721 1.12489 8.76809C1.3757 10.029 1.99476 11.1872 2.90381 12.0962C3.81285 13.0052 4.97104 13.6243 6.23191 13.8751C7.49279 14.1259 8.79972 13.9972 9.98744 13.5052C11.1752 13.0132 12.1903 12.1801 12.9046 11.1112C13.6188 10.0423 14 8.78558 14 7.5C13.9979 5.77674 13.3124 4.12467 12.0939 2.90614C10.8753 1.68762 9.22326 1.00212 7.5 1V1ZM7.5 13C6.4122 13 5.34883 12.6774 4.44436 12.0731C3.53989 11.4687 2.83494 10.6098 2.41866 9.60476C2.00238 8.59977 1.89346 7.4939 2.10568 6.427C2.3179 5.36011 2.84172 4.3801 3.61091 3.61091C4.3801 2.84172 5.36011 2.3179 6.427 2.10568C7.4939 1.89346 8.59976 2.00238 9.60476 2.41866C10.6098 2.83494 11.4687 3.53989 12.0731 4.44436C12.6774 5.34883 13 6.4122 13 7.5C12.9984 8.9582 12.4184 10.3562 11.3873 11.3873C10.3562 12.4184 8.9582 12.9984 7.5 13V13Z" fill="#006CBE" />
  <path d="M7.5 3.781C8.07892 3.78545 8.63286 4.0174 9.04223 4.42676C9.4516 4.83613 9.68355 5.39008 9.688 5.969C9.688 7.023 8.988 7.469 8.388 8.084C8.2022 8.25823 8.06324 8.47641 7.9839 8.71845C7.90456 8.96048 7.8874 9.21859 7.934 9.469H7.062C7.02476 9.07981 7.06904 8.68713 7.192 8.316C7.36211 7.9307 7.61714 7.58884 7.938 7.316C8.22816 7.07994 8.47954 6.79988 8.683 6.486C8.75765 6.32926 8.79951 6.15892 8.806 5.98542C8.81249 5.81193 8.78348 5.63894 8.72075 5.47706C8.65802 5.31517 8.56289 5.1678 8.44119 5.04399C8.31949 4.92017 8.17378 4.82251 8.013 4.757C7.81329 4.67243 7.59574 4.63865 7.37979 4.65867C7.16384 4.67869 6.9562 4.75189 6.77545 4.87174C6.59469 4.99158 6.44643 5.15434 6.34392 5.34546C6.24141 5.53658 6.18784 5.75012 6.188 5.967H5.312C5.31437 5.38762 5.54572 4.83268 5.95559 4.42318C6.36546 4.01368 6.92062 3.78284 7.5 3.781V3.781ZM8.25 11.5C8.25 11.6483 8.20601 11.7933 8.1236 11.9167C8.04119 12.04 7.92406 12.1361 7.78701 12.1929C7.64997 12.2497 7.49917 12.2645 7.35368 12.2356C7.20819 12.2067 7.07456 12.1352 6.96967 12.0303C6.86478 11.9254 6.79335 11.7918 6.76441 11.6463C6.73547 11.5008 6.75032 11.35 6.80709 11.213C6.86385 11.0759 6.95998 10.9588 7.08332 10.8764C7.20666 10.794 7.35166 10.75 7.5 10.75C7.69891 10.75 7.88968 10.829 8.03033 10.9697C8.17098 11.1103 8.25 11.3011 8.25 11.5Z" fill="#006CBE" />
</svg>